<?xml version="1.0" standalone="no"?>
<!DOCTYPE svg PUBLIC "-//W3C//DTD SVG 1.1//EN" "http://www.w3.org/Graphics/SVG/1.1/DTD/svg11.dtd" >
<!--
2013-9-30: Created.
-->
<svg>
<metadata>
Created by iconfont
</metadata>
<defs>

<font id="iconfont" horiz-adv-x="1024" >
  <font-face
    font-family="iconfont"
    font-weight="500"
    font-stretch="normal"
    units-per-em="1024"
    ascent="896"
    descent="-128"
  />
    <missing-glyph />
    
    <glyph glyph-name="-dinner" unicode="&#58932;" d="M369.152 815.104c73.728 0 129.536-82.944 129.536-188.928 0-94.208-45.568-170.496-105.984-186.368v-477.696c0-5.12-4.096-8.704-8.704-8.704h-29.696c-5.12 0-8.704 4.096-8.704 8.704V439.296c-60.928 15.36-105.984 92.672-105.984 186.368-0.512 106.496 56.32 189.44 129.536 189.44m0 55.296C263.168 870.4 183.296 765.44 183.296 625.152c0-99.328 42.496-183.808 105.984-222.208v-440.832c0-35.84 28.672-64.512 64.512-64.512h29.696c35.84 0 64.512 28.672 64.512 64.512V402.944c65.536 38.912 107.008 123.904 107.008 222.208C555.008 765.44 475.136 870.4 369.152 870.4z m334.336-958.976c-15.36 0-28.16 12.8-28.16 28.16V834.048c0 15.36 12.8 28.16 28.16 28.16s28.16-12.8 28.16-28.16V-61.440000000000055c-0.512-15.36-13.312-27.136-28.16-27.136z m109.056 0c-15.36 0-28.16 12.8-28.16 28.16V834.048c0 15.36 12.8 28.16 28.16 28.16s28.16-12.8 28.16-28.16V-61.440000000000055c-1.024-15.36-12.8-27.136-28.16-27.136z m0 0"  horiz-adv-x="1024" />

    
    <glyph glyph-name="-empty" unicode="&#58931;" d="M798.208 543.744c-17.92 0-31.744-13.824-31.744-31.744v-414.208c0-34.816-28.672-63.488-63.488-63.488h-63.488V512c0 17.92-13.824 31.744-31.744 31.744s-31.744-13.824-31.744-31.744v-477.696h-128V512c0 17.92-13.824 31.744-31.744 31.744S384 529.408 384 512v-477.696H320.512c-34.816 0-63.488 28.672-63.488 63.488V512c0 17.92-13.824 31.744-31.744 31.744s-31.744-13.824-31.744-31.744v-414.208c0-70.144 57.344-127.488 127.488-127.488h382.464c70.144 0 127.488 57.344 127.488 127.488V512c-1.024 17.408-14.848 31.744-32.768 31.744z m64 127.488H161.28c-17.92 0-31.744-13.824-31.744-31.744s13.824-31.744 31.744-31.744h700.928c17.92 0 31.744 13.824 31.744 31.744 0 17.408-14.336 31.744-31.744 31.744zM352.256 734.72H670.72c17.92 0 31.744 13.824 31.744 31.744s-13.824 31.744-31.744 31.744H352.256c-17.92 0-31.744-13.824-31.744-31.744 0-17.408 13.824-31.744 31.744-31.744z m0 0"  horiz-adv-x="1024" />

    
    <glyph glyph-name="-meal" unicode="&#58930;" d="M935.5776 123.34079999999994H88.4224a32.6144 32.6144 0 1 1 0-65.1776h847.1552a32.6144 32.6144 0 1 1 0 65.1776zM565.76 607.8976a65.1776 65.1776 0 1 1-118.9376 36.7616 64.6144 64.6144 0 0 1 11.4176-36.7616 390.7584 390.7584 0 0 1-337.2544-386.816v-32.6144a32.512 32.512 0 0 1 32.6144-32.5632h716.8a32.512 32.512 0 0 1 32.5632 32.5632v32.6144a390.7584 390.7584 0 0 1-337.2032 386.816zM443.8528 471.04a393.0112 393.0112 0 0 1-174.08-174.08 31.1808 31.1808 0 0 0-27.904-17.2544 29.2352 29.2352 0 0 0-13.8752 3.3792 30.72 30.72 0 0 0-13.8752 41.728 454.5536 454.5536 0 0 0 201.8816 201.7792A31.0784 31.0784 0 1 0 443.8528 471.04z"  horiz-adv-x="1024" />

    
    <glyph glyph-name="-beizhu" unicode="&#58929;" d="M871.8848 756.5824l-50.0224 49.9712a49.7664 49.7664 0 0 1-70.3488-0.8192l-75.2128-75.1616H204.1856a66.9184 66.9184 0 0 1-66.816-66.56v-649.3696a66.9184 66.9184 0 0 1 66.816-66.56h525.7216a66.8672 66.8672 0 0 1 66.56 66.56V611.8399999999999L871.0144 686.08a49.8688 49.8688 0 0 1 0.8704 70.4z m-119.808-741.9392a22.3232 22.3232 0 0 0-22.272-22.272H204.1856a22.3232 22.3232 0 0 0-22.3232 22.272V663.7568A22.3744 22.3744 0 0 0 204.1856 686.08h427.52L494.8992 549.1712a50.4832 50.4832 0 0 1-14.9504-34.9184l-1.2288-49.6128A48.2816 48.2816 0 0 1 527.36 414.72h1.1776l52.8896 1.1776a50.8928 50.8928 0 0 1 37.5296 18.0224l133.12 133.12z m84.992 705.4848l-252.8256-252.8768-0.8192-0.8192-0.8704-0.9728a3.1232 3.1232 0 0 0-2.2528-1.3312l-52.9408-1.1776a3.6352 3.6352 0 0 0-0.6144 0 1.2288 1.2288 0 0 0 0 0.6144l1.1776 49.664a3.4816 3.4816 0 0 0 0.9728 1.9968l256.512 256.7168a3.072 3.072 0 0 0 2.048 0.9216h0.4608l50.0224-50.0224a2.5088 2.5088 0 0 0-0.8704-2.6112z m0 0M258.9696 314.52160000000003a24.0128 24.0128 0 0 1 23.9616-23.9616h378.88a23.9616 23.9616 0 1 1 0 47.9232h-378.88a23.8592 23.8592 0 0 1-23.9616-23.9616z m230.4-117.76H282.9312a24.0128 24.0128 0 0 1 0-47.9744h206.4896a24.0128 24.0128 0 1 1 0 47.9744z m0 0"  horiz-adv-x="1024" />

    
    <glyph glyph-name="-uncheck-circle" unicode="&#58925;" d="M524.544 862.72a480.7168 480.7168 0 1 1 480.7168-480.7168A480.7168 480.7168 0 0 1 524.544 862.72z m0-917.4528a436.736 436.736 0 1 0 436.736 436.736 436.736 436.736 0 0 0-436.736-436.736z"  horiz-adv-x="1024" />

    
    <glyph glyph-name="-check-circle-disable" unicode="&#58926;" d="M524.544 862.72a480.7168 480.7168 0 1 1 480.7168-480.7168A480.7168 480.7168 0 0 1 524.544 862.72z m0-917.4528a436.736 436.736 0 1 0 436.736 436.736 436.736 436.736 0 0 0-436.736-436.736zM524.542758 381.985719m-308.818988-308.818987a436.736 436.736 0 1 1 617.637975 617.637974 436.736 436.736 0 1 1-617.637975-617.637974Z"  horiz-adv-x="1024" />

    
    <glyph glyph-name="-check-circle-soild" unicode="&#58927;" d="M512 864.3072A480.3072 480.3072 0 1 1 992.3072 384 480.9216 480.9216 0 0 1 512 864.3072z m322.1504-319.1808l-385.9456-390.144s-0.256 0-0.3584-0.256 0 0 0-0.3584a47.872 47.872 0 0 0-10.24-6.8096 31.744 31.744 0 0 0-5.12-3.2256 47.4112 47.4112 0 0 0-17.92-3.4304 48.7936 48.7936 0 0 0-18.2272 3.584c-1.9968 0.8704-3.4816 2.4576-5.12 3.4304a49.152 49.152 0 0 0-10.24 6.8096 1.792 1.792 0 0 0 0 0.4096h-0.3584L189.44 350.41279999999995a48.1792 48.1792 0 0 0 69.12 67.1744l155.5456-159.7952 351.3856 355.2256a48.2304 48.2304 0 0 0 68.5056-67.8912z m0 0"  horiz-adv-x="1024" />

    
    <glyph glyph-name="diancanxitongicon-32" unicode="&#58928;" d="M946.0224 567.296a471.04 471.04 0 0 1-867.9424 0 471.3472 471.3472 0 0 1 250.5216-617.216 471.4496 471.4496 0 0 1 617.3184 250.5216 471.9616 471.9616 0 0 1 0 366.6944zM828.928 509.0304l-294.6048-294.656a31.5392 31.5392 0 0 0-44.6464 0L195.072 509.0304a31.5392 31.5392 0 1 0 44.5952 44.5952L512 281.2928l272.3328 272.3328a31.5392 31.5392 0 1 0 44.5952-44.5952z"  horiz-adv-x="1024" />

    
    <glyph glyph-name="999-19" unicode="&#58923;" d=""  horiz-adv-x="1024" />

    
    <glyph glyph-name="-gift3" unicode="&#58924;" d="M948.7872 660.48h-199.168c52.7872 11.2128 94.1056 34.5088 100.9664 77.2608C858.5216 786.5344 796.7232 860.16 721.92 851.0976c-89.4976-11.6736-155.0848-85.5552-201.3696-143.0016-46.08 56.32-105.7792 121.9584-191.488 141.056C245.76 867.584 189.1328 786.944 190.6688 736.9728 192.1024 694.6304 232.7552 671.6928 286.72 660.48H85.248a48.0768 48.0768 0 0 1-48.5888-48.0256V442.88h960.6656V612.5056a48.128 48.128 0 0 1-48.5376 47.9744zM250.5728 721.92c-15.36 15.7184-5.12 37.12 4.5568 53.248 17.408 28.672 41.8304 45.9264 83.0464 29.7472 57.6512-22.528 100.1472-70.1952 134.656-112.896C399.36 684.4928 290.3552 681.472 250.5728 721.92z m318.6176-29.3376c35.84 42.8032 76.8 86.3232 134.2464 112.9472 59.904 27.7504 115.6096-47.3088 87.04-83.3536-21.9648-27.392-91.392-29.952-128.8704-31.5392a698.0096 698.0096 0 0 0-92.416 2.048zM956.3648 357.63199999999995V404.48H77.568v-447.3344c0-22.784 19.7632-40.96 44.032-40.96H912.384c24.32 0 43.9808 18.1248 43.9808 40.96v400.4864z m-539.5968-286.72c-17.2544-17.3056-46.5408-30.3616-82.176-30.3616-69.5296 0-119.9616 48.6912-119.9616 133.7344s52.224 135.4752 121.0368 135.4752a103.6288 103.6288 0 0 0 77.2608-32.8192L390.7072 250.88a70.2976 70.2976 0 0 1-53.6576 23.296c-48.3328 0-80.4352-37.376-80.4352-98.4064s28.5696-99.4816 82.2272-99.4816c15.872 0 31.744 4.608 40.96 12.7488v61.0304H328.2432v33.4848H416.768z m207.872 60.7744H498.688c3.1744-37.0176 26.4192-59.2384 59.9552-59.2384a82.4832 82.4832 0 0 1 46.08 14.4384l14.08-25.6a117.76 117.76 0 0 0-65.5872-20.48c-52.5824 0-94.5664 37.4272-94.5664 101.2736s43.0592 102.4 88.576 102.4c51.5072 0 79.0016-37.0176 79.0016-92.16a108.0832 108.0832 0 0 0-1.5872-20.6336z m108.6464-91.0336c-43.7248 0-58.88 27.1872-58.88 68.096V206.84799999999996h-28.2624v30.3616l30.0032 2.0992 4.608 53.6064h34.2016v-53.6064h50.432v-32.4608h-50.432v-98.4576c0-23.2448 8.1408-35.2768 28.2112-35.2768a58.1632 58.1632 0 0 1 20.8384 4.608l7.424-30.0032a124.2624 124.2624 0 0 0-38.144-7.0656zM547.84 212.48000000000002c-24.32 0-46.08-18.688-49.7152-52.8896h93.1328c0.2048 33.4848-14.9504 52.8896-43.4176 52.8896z"  horiz-adv-x="1024" />

    
    <glyph glyph-name="-heart" unicode="&#58896;" d="M512-85.75999999999999L437.76-18.432000000000016C174.08 220.928 0 378.88 0 572.1600000000001c0 157.952 123.648 281.6 281.6 281.6a307.2 307.2 0 0 0 230.4-106.752 307.2 307.2 0 0 0 230.4 106.752c157.952 0 281.6-123.648 281.6-281.6 0-193.28-174.08-351.232-437.76-590.592z m0 0"  horiz-adv-x="1024" />

    
    <glyph glyph-name="-dingdan" unicode="&#58897;" d="M846.3872 894.9248h-77.1584c-17.0496 0-25.6-9.0112-25.6-26.2144s8.704-26.2144 25.6-26.2144h77.1584c36.7104 0 77.1584-67.6864 77.1584-104.7552v-733.4912c0-37.0688-40.448-78.592-77.1584-78.592H177.6128c-39.2704 4.4032-77.1584 26.2144-77.1584 78.592V737.7408c0 37.0688 40.448 104.8064 77.1584 104.8064h77.1584c17.0496 0 25.6 8.96 25.6 26.1632s-8.704 26.2144-25.6 26.2144H177.6128S48.9984 894.9248 48.9984 738.9184v-734.72c0-76.8 46.08-131.1232 129.8432-131.1232h666.3168c83.968 0 129.8432 45.056 129.8432 131.1232V738.9184C975.0016 894.9248 846.3872 894.9248 846.3872 894.9248zM357.6832 711.6800000000001h308.6336s51.456 1.3312 51.456 52.3776V868.7104a26.0096 26.0096 0 0 1-25.6 26.2144H331.9296a26.0096 26.0096 0 0 1-25.6-26.2144V763.904S307.712 711.6800000000001 357.6832 711.6800000000001z m305.8176 131.0208h3.4816l-0.6656-52.4288c0-29.44-25.6-26.1632-25.6-26.1632s-232.2944-0.512-257.2288 0-25.6 26.1632-25.6 26.1632V842.7008z m79.9744-261.9904H280.5248a26.2144 26.2144 0 0 1 0-52.3776h463.0016a26.2144 26.2144 0 0 1 0 52.3776z m0-183.3472H280.5248a26.2144 26.2144 0 0 1 0-52.4288h463.0016a26.2144 26.2144 0 0 1 0 52.4288z m0-183.3984H280.5248a26.2144 26.2144 0 0 1 0-52.3776h463.0016a26.2144 26.2144 0 0 1 0 52.3776z m0 0"  horiz-adv-x="1024" />

    
    <glyph glyph-name="-jia-circle" unicode="&#58898;" d="M512 895.2832A511.2832 511.2832 0 1 1 1023.2832 384 511.6416 511.6416 0 0 1 512 895.2832z m237.568-543.2832h-205.568v-205.568a32 32 0 0 0-64 0v205.568H274.432a32 32 0 0 0 0 64h205.568V621.568a32 32 0 0 0 64 0v-205.568h205.568a31.7952 31.7952 0 0 0 31.9488-32 32.1024 32.1024 0 0 0-31.9488-32z"  horiz-adv-x="1024" />

    
    <glyph glyph-name="-fillin" unicode="&#58899;" d="M138.240019-127.99994900000002a103.167995 103.167995 0 0 0-103.270395 103.065595V720.435209A103.167995 103.167995 0 0 0 138.240019 823.500804h521.574374a28.518399 28.518399 0 0 0 0-57.036798H138.240019a46.079998 46.079998 0 0 1-46.079998-46.079997v-745.318363a46.079998 46.079998 0 0 1 46.079998-46.079998h670.719966a46.079998 46.079998 0 0 1 46.079998 46.079998V571.596816a28.518399 28.518399 0 0 0 57.036797 0v-596.32637A103.065595 103.065595 0 0 0 808.959985-127.99994900000002zM212.582415 244.889633a28.569599 28.569599 0 0 0 0 57.087997h447.231978a28.569599 28.569599 0 0 0 0-57.087997zM590.079996 468.480021a28.569599 28.569599 0 0 0-20.479999 48.793598l370.687982 370.329581a28.518399 28.518399 0 1 0 40.345598-40.345598l-370.483182-370.483181a28.569599 28.569599 0 0 0-20.070399-8.2944zM212.582415 468.480021a28.569599 28.569599 0 0 0 0 57.087998h223.590389a28.569599 28.569599 0 1 0 0-57.087998z"  horiz-adv-x="1024" />

    
    <glyph glyph-name="-bottle2" unicode="&#58900;" d="M710.458371-73.08817399999998h-46.828405v152.345684c78.7801 18.09744 138.90041 111.345268 138.90041 223.866359a296.511734 296.511734 0 0 1-13.445273 89.413624 18.864281 18.864281 0 0 1-17.944072 13.18966h-270.950378a18.915404 18.915404 0 0 1-17.995194-13.18966 298.607765 298.607765 0 0 1-13.445274-89.413624c0-111.907618 59.55796-204.899832 138.031324-223.559623v-152.65242h-329.230269V445.347255a167.017902 167.017902 0 0 0 58.99561 126.784328 161.956754 161.956754 0 0 1 57.155193 122.69451V841.088174h97.133154v-146.61994a161.752263 161.752263 0 0 1 57.10407-122.69451 166.864534 166.864534 0 0 0 58.944488-126.733205 28.424228 28.424228 0 0 1 56.848456 0 221.105732 221.105732 0 0 1-78.064382 167.73362 108.022292 108.022292 0 0 0-37.984176 81.796341V852.539662a44.323392 44.323392 0 0 1-45.039109 43.454306H381.892696a44.323392 44.323392 0 0 1-45.03911-43.454306v-157.662446a107.817801 107.817801 0 0 0-38.137543-81.79634A221.514714 221.514714 0 0 1 220.600538 445.347255v-529.886917a44.323392 44.323392 0 0 1 45.03911-43.454306h444.7676a27.452897 27.452897 0 1 1 0 54.905794z"  horiz-adv-x="1024" />

    
    <glyph glyph-name="-temp" unicode="&#58901;" d="M654.203389 340.75156300000003V753.796611a142.203389 142.203389 0 0 1-284.406778 0v-413.045048a255.945624 255.945624 0 1 1 284.406778 0zM512-70.91138000000001a198.920939 198.920939 0 0 0-99.511659 371.274723 28.409964 28.409964 0 0 1 14.179388 24.57078V469.441022H512a28.461153 28.461153 0 1 1 0 56.871118H426.667729V583.183258H512A28.461153 28.461153 0 1 1 512 640.054376H426.667729V753.796611a85.332271 85.332271 0 1 0 170.664542 0v-428.811299a28.409964 28.409964 0 0 1 14.179388-24.57078A198.972128 198.972128 0 0 0 512-70.91138000000001z m0 0M568.871118 156.62428a28.512343 28.512343 0 0 1-28.461154-28.461153 85.38346 85.38346 0 0 0-85.281082-85.332271 28.461153 28.461153 0 1 1 0-56.871118A142.356956 142.356956 0 0 1 597.332271 128.16312700000003a28.512343 28.512343 0 0 1-28.461153 28.461153z"  horiz-adv-x="1024" />

    
    <glyph glyph-name="-jian-circle" unicode="&#58902;" d="M512 838.7072000000001a453.632 453.632 0 1 0-453.5808-453.632A454.0928 454.0928 0 0 0 512 838.7072000000001M512 896a511.2832 511.2832 0 1 1 511.2832-511.2832A511.2832 511.2832 0 0 1 512 896z m0 0M749.312 352.56320000000005h-475.136a32 32 0 0 0 0 64h475.136a32.1024 32.1024 0 0 0 31.9488-32 32.4608 32.4608 0 0 0-31.9488-32z m0 0"  horiz-adv-x="1024" />

    
    <glyph glyph-name="-cart" unicode="&#58903;" d="M840.96 106.44479999999999a95.2832 95.2832 0 1 1 95.3344-95.2832 95.3856 95.3856 0 0 1-95.3344 95.2832z m0-131.584a36.3008 36.3008 0 1 0 36.3008 36.3008 36.352 36.352 0 0 0-36.3008-36.3008zM380.416 106.44479999999999a95.2832 95.2832 0 1 1 95.2832-95.2832 95.3856 95.3856 0 0 1-95.2832 95.2832z m0-131.584a36.3008 36.3008 0 1 0 36.3008 36.3008 36.352 36.352 0 0 0-36.3008-36.3008zM928.7168 720.5376H198.2976L186.368 783.36v0.768A94.464 94.464 0 0 1 95.2832 852.1216H29.4912a29.4912 29.4912 0 0 1 0-58.9824h65.8432a36.5056 36.5056 0 0 0 35.3792-28.2624l96.4608-547.1744c0.4608-3.4304 2.4576-11.9808 2.7648-13.2608a95.6928 95.6928 0 0 1 84.1216-69.2224h614.4a29.4912 29.4912 0 0 1 0 58.9824H321.1776A35.84 35.84 0 0 0 286.72 220.15999999999997l-8.2432 46.7968h604.16a94.4128 94.4128 0 0 1 91.0336 68.4032v0.8704C1024 623.3088 1024 624.384 1024 625.2544a95.3856 95.3856 0 0 1-95.2832 95.2832z m-11.7248-369.5616a35.84 35.84 0 0 0-34.3552-25.1904h-614.4L208.7936 661.5552h719.9232a36.3008 36.3008 0 0 0 36.3008-35.84c-0.5632-8.9088-29.0304-168.96-48.0256-274.7392z"  horiz-adv-x="1024" />

    
    <glyph glyph-name="-jian-circle-disable" unicode="&#58904;" d="M512 838.144a453.632 453.632 0 1 0-453.5808-453.632A454.0928 454.0928 0 0 0 512 838.144m0 57.1392A511.2832 511.2832 0 1 1 1023.2832 384 511.2832 511.2832 0 0 1 512 895.2832z m0 0M749.568 352H274.432a32 32 0 0 0 0 64h475.136a32.1024 32.1024 0 0 0 31.9488-32 32.4608 32.4608 0 0 0-31.9488-32z m0 0"  horiz-adv-x="1024" />

    
    <glyph glyph-name="-renqi" unicode="&#58905;" d="M515.7888 871.6288a109.7216 109.7216 0 0 0 108.3904-110.8992 108.3904 108.3904 0 1 0-216.7808 0 109.6704 109.6704 0 0 0 108.3904 110.8992z m0 0M246.9888 605.8496a19.968 19.968 0 0 0-18.0224 13.1072 23.9104 23.9104 0 0 0 9.6768 30.0032l324.0448 171.8784a18.5344 18.5344 0 0 0 8.3968 2.0992 19.968 19.968 0 0 0 18.0224-13.056 24.0128 24.0128 0 0 0-9.6768-30.0544L255.3856 608a17.9712 17.9712 0 0 0-8.3968-2.1504z m0 0M777.8304 605.8496a16.2816 16.2816 0 0 0-8.0384 2.2016L458.8544 783.36a25.6 25.6 0 0 0-9.1648 30.72 18.944 18.944 0 0 0 17.2032 13.2096 16.4352 16.4352 0 0 0 8.0896-2.0992l310.9376-175.4112a25.2416 25.2416 0 0 0 9.1648-30.72 19.0976 19.0976 0 0 0-17.2544-13.2608z m0 0M810.5984 358.86080000000004H788.48v-73.8304h24.064c42.8544 0 48.5888 19.968 48.5888 39.4752 0.0512 21.76-8.192 34.3552-50.5344 34.3552zM506.88 360.448c-37.632 0-60.1088-33.3824-60.1088-89.3952S469.6064 179.712 506.88 179.712s60.0576 35.0208 60.0576 91.3408S544.3072 360.448 506.88 360.448zM837.0688 605.6448h-650.24a130.048 130.048 0 0 1-129.9968-130.048v-449.1264a130.048 130.048 0 0 1 129.9968-130.0992h650.24a130.048 130.048 0 0 1 129.9968 130.0992V475.5968a130.048 130.048 0 0 1-129.9968 130.048z m-494.7968-249.1392H259.1232v-244.2752H178.176v244.2752H95.7952V427.5712h246.4768z m267.4176-204.8c-25.6-29.3376-61.44-44.8-103.0144-44.8s-77.4656 15.36-103.0656 44.8-39.168 70.7072-39.168 119.552c0 98.4576 55.808 162.048 142.2336 162.048s142.2336-63.5904 142.2336-162.048c0-49.0496-13.568-90.4192-39.2192-119.7568z m206.848 64.8704H788.48v-104.1408h-80.896V427.5712h107.52c104.1408 0 126.0032-56.32 126.0032-103.0656-0.1536-66.7136-47.8208-108.1344-124.5696-108.1344z"  horiz-adv-x="1024" />

    
    <glyph glyph-name="-coin" unicode="&#58906;" d="M387.0208 108.85119999999995a231.0656 231.0656 0 0 0-4.0448 52.6336A289.3824 289.3824 0 0 0 389.12 220.15999999999997c-161.8432 10.24-283.1872 64.7168-283.1872 147.6608v-93.0816c-2.048-82.944 119.3472-151.7056 281.1904-165.888zM406.6816 52.224000000000046C238.7968 60.31359999999995 107.52 114.94399999999996 107.52 199.67999999999995v-93.0304c0-93.0304 153.6-167.8848 343.8592-167.8848a261.632 261.632 0 0 1 40.4992 1.9968 291.84 291.84 0 0 0-84.992 111.2576zM408.7296 274.7392a291.84 291.84 0 0 0 87.04 111.2576 317.44 317.44 0 0 0-44.544-1.9968C261.12 384 107.52 440.6272 107.52 533.7088v-93.0816c0-87.04 131.4816-155.7504 301.4144-165.888zM451.1744 829.0304C261.12 829.0304 107.52 754.2272 107.52 661.1456000000001v-54.6304c0-93.0304 153.6-165.888 343.8592-165.888s343.9104 74.8544 343.9104 165.888V661.1456000000001c-0.2048 93.0816-153.9584 167.8848-344.1152 167.8848zM898.2528 258.55999999999995a205.568 205.568 0 0 1-50.5344 72.8576 265.216 265.216 0 0 1-74.5984 48.5376 238.7456 238.7456 0 0 1-93.0816 18.2272 228.7104 228.7104 0 0 1-91.2384-18.2272 239.104 239.104 0 0 1-74.8544-48.5376 205.568 205.568 0 0 1-50.5856-72.8576 226.4576 226.4576 0 0 1 0-178.0224 205.3632 205.3632 0 0 1 50.5344-72.8064 271.6672 271.6672 0 0 1 74.9056-50.5856 228.6592 228.6592 0 0 1 91.0336-18.176 246.2208 246.2208 0 0 1 93.2864 18.176 212.8384 212.8384 0 0 1 74.8544 50.5856 205.3632 205.3632 0 0 1 50.5344 72.8064 219.3408 219.3408 0 0 1 17.9712 89.0368 212.0704 212.0704 0 0 1-18.2272 88.9856zM762.88 143.92319999999995a16.4352 16.4352 0 1 0 0-32.8192h-65.6384v-49.2544a16.4352 16.4352 0 0 0-32.8704 0v49.2544h-65.6384a16.4352 16.4352 0 1 0 0 32.8192h65.6384v32.8192h-65.6384a16.4352 16.4352 0 1 0 0 32.8192h58.88l-54.1184 54.0672a16.4352 16.4352 0 0 0 23.2448 23.2448L680.96 232.80640000000005 734.8224 286.72a16.4352 16.4352 0 1 0 23.2448-23.2448l-54.0672-53.9136H762.88a16.4352 16.4352 0 1 0 0-32.8192h-65.6384v-32.8192z"  horiz-adv-x="1024" />

    
    <glyph glyph-name="-gift1" unicode="&#58907;" d="M473.4976 642.4064v-215.7056H30.72V599.8592a48.5888 48.5888 0 0 0 48.5376 49.1008h201.728C227.0208 660.48 186.368 683.8272 184.8832 727.04c-1.4848 51.2 55.3472 133.12 138.24 114.5344 85.7088-19.5072 145.6128-86.5792 191.4368-144.0256 46.08 58.624 111.9232 134.0928 201.4208 146.0224 74.752 9.5232 136.6016-65.9456 128.6144-115.7632-6.8096-43.6224-48.128-67.3792-100.9152-78.848h199.1168a48.64 48.64 0 0 0 48.5888-49.1008v-173.056h-442.4192L547.84 644.8128M332.4416 796.4159999999999c-41.3696 16.5376-65.6384-1.1776-83.0976-30.2592-9.472-16.4352-19.6608-38.3488-4.5568-54.3744 39.8336-41.3696 149.0432-38.2976 222.2592-30.72-34.5088 43.5712-76.8 92.16-134.6048 115.2512z m452.4032-84.3264c28.4672 36.8128-27.2896 113.4592-87.04 85.0944-57.2928-27.1872-98.6112-71.68-134.1952-115.3536a672.3072 672.3072 0 0 1 92.5184-1.8944c37.5296 1.5872 106.9568 4.1984 128.8704 32.1536z m-308.3264-803.328H115.8144a44.288 44.288 0 0 0-44.1344 44.8V391.7824h404.8896v-483.0208z m474.112 44.8512a44.288 44.288 0 0 0-43.9808-44.8h-360.704V391.8336h404.48z m0 0"  horiz-adv-x="1024" />

    
    <glyph glyph-name="-down-circle" unicode="&#58908;" d="M512 896C230.4 896 0 665.6 0 384s230.4-512 512-512 512 230.4 512 512S793.6 896 512 896z m0-938.6496A426.6496 426.6496 0 1 0 938.6496 384 427.9296 427.9296 0 0 0 512-42.649599999999964z m0 0M793.6 499.2a41.3184 41.3184 0 0 1-59.7504 0L512 277.35040000000004 290.1504 499.2A42.24 42.24 0 0 1 230.4 439.4496l251.7504-251.6992a40.96 40.96 0 0 1 59.6992 0L793.6 439.4496c17.0496 12.8 17.0496 42.7008 0 59.7504z m0 0"  horiz-adv-x="1024" />

    
    <glyph glyph-name="-bottle1" unicode="&#58909;" d="M684.7488 353.28v-434.2272a47.104 47.104 0 0 0-47.0528-46.8992h-251.392a47.104 47.104 0 0 0-47.0528 46.8992V353.28c0 82.5344 40.96 119.6544 71.0656 146.688 5.12 4.5056 9.8816 8.8064 14.08 13.1584 13.9264 14.2336 17.1008 40.96 17.2544 49.92V790.5792h-1.7408a17.4592 17.4592 0 1 0 0 34.8672h16.7936V864.8192A31.1296 31.1296 0 0 0 487.7312 896h48.5376a31.1296 31.1296 0 0 0 31.0272-31.1808v-39.3728h16.7936a17.4592 17.4592 0 1 0 0-34.8672h-1.7408v-227.6864c0-9.1136 3.328-35.84 17.2544-49.92 4.1984-4.352 8.96-8.6528 14.08-13.1584 29.952-27.0336 71.0656-64.1536 71.0656-146.5344z"  horiz-adv-x="1024" />

    
    <glyph glyph-name="-glass" unicode="&#58910;" d="M816.384 754.944l-0.768 2.048a1.8944 1.8944 0 0 0-0.256-0.5632 837.8368 837.8368 0 0 1-58.7776 126.1568 27.904 27.904 0 0 1-22.016 13.4144H289.4336a27.904 27.904 0 0 1-22.016-13.3632 837.8368 837.8368 0 0 1-58.7776-126.208 1.8944 1.8944 0 0 0 0 0.5632l-0.768-2.048c-25.6-68.864-49.7152-158.3616-48.1792-250.368 0-5.12 1.6896-104.6528 71.68-178.0736 0.7168-0.768 1.4336-1.536 2.2016-2.2528v0.4608a239.1552 239.1552 0 0 1 54.1696-40.96l4.3008-2.3552 0.8192-0.4608 0.9728-0.512c12.8512-6.2464 81.92-37.376 184.7808-43.52l5.4272-0.3072v-309.0432h-127.488a27.648 27.648 0 0 1 0-55.2448h310.8352a27.648 27.648 0 0 1 0 55.2448h-127.6416v308.736l5.4272 0.3072c103.0144 6.144 171.9296 37.2736 184.7808 43.52l0.9728 0.512 0.8192 0.4608 4.352 2.3552a239.1552 239.1552 0 0 1 54.1696 40.96v-0.4608c0.768 0.7168 1.4848 1.4848 2.2016 2.2528 70.144 73.4208 71.68 173.1584 71.68 178.0736 1.9456 92.3136-22.016 181.8112-47.7696 250.6752zM808.96 505.344a241.6128 241.6128 0 0 0-8.6528-53.4528H223.5904A221.7984 221.7984 0 0 0 215.04 505.344c-2.56 146.176 68.608 291.072 92.16 335.2064h409.6c23.6032-43.8784 94.5152-188.5184 92.16-335.2064z"  horiz-adv-x="1024" />

    
    <glyph glyph-name="-coupon" unicode="&#58911;" d="M959.8464 524.6976c26.7776 6.1952 48.7936 30.72 48.7936 58.4704v148.48a49.3568 49.3568 0 0 1-49.2544 49.664H64.6144A49.8176 49.8176 0 0 1 15.36 731.648v-148.48a60.7232 60.7232 0 0 1 48.7936-58.4192S164.352 532.992 164.352 384s-100.1984-140.6464-100.1984-140.6464C37.376 237.15840000000003 15.36 212.5824 15.36 184.8832v-148.48a49.3056 49.3056 0 0 1 49.2544-49.664h894.7712a49.8176 49.8176 0 0 1 49.2544 49.664v148.48a60.7232 60.7232 0 0 1-48.7936 58.4192S859.648 235.00800000000004 859.648 384s100.1984 140.6976 100.1984 140.6976z m-323.6864-165.5296a24.832 24.832 0 1 0 0-49.6128h-99.328v-74.5472a24.832 24.832 0 0 0-49.664 0v74.5472h-99.328a24.832 24.832 0 1 0 0 49.6128h99.328v49.664h-99.328a24.832 24.832 0 1 0 0 49.664h89.0368l-81.92 81.92A24.832 24.832 0 1 0 430.08 575.4368l81.92-81.92 81.92 81.92a24.832 24.832 0 1 0 35.1232-35.1744l-81.92-81.92h89.0368a24.832 24.832 0 1 0 0-49.664h-99.328v-49.664z"  horiz-adv-x="1024" />

    
    <glyph glyph-name="-check-square" unicode="&#58912;" d="M382.9248 116.32640000000004a31.6416 31.6416 0 0 0-9.5232 1.4848l-2.1504 0.7168-1.8944 1.2288-1.0752 0.7168-1.0752 0.7168-1.1264 0.6144a36.5056 36.5056 0 0 0-3.4304 2.304l-0.8704 0.6656-240.3328 237.5168v0.3072a29.5424 29.5424 0 0 0 1.024 40.96 30.464 30.464 0 0 0 41.472 1.1776l1.024-0.9728 217.6512-215.552L860.16 655.0527999999999a30.72 30.72 0 0 0 20.48 7.7312 30.1568 30.1568 0 0 0 29.1328-22.784 29.696 29.696 0 0 0-8.6528-28.7232l-497.2544-486.656-0.8192-0.6656a33.8944 33.8944 0 0 0-3.6352-2.3552l-0.9728-0.5632-0.9728-0.6656-1.024-0.6656-1.8944-1.1776-2.048-0.6656a30.72 30.72 0 0 0-9.5744-1.536zM944.4864-99.072H79.5136a61.7984 61.7984 0 0 0-61.44 61.44V816.4864a61.7984 61.7984 0 0 0 61.44 61.44h864.9728a61.7984 61.7984 0 0 0 61.696-61.44V-37.375999999999976a61.7984 61.7984 0 0 0-61.696-61.696zM79.5136 837.0176a20.48 20.48 0 0 1-20.48-20.48V-37.375999999999976a20.48 20.48 0 0 1 20.48-20.48h864.9728a20.48 20.48 0 0 1 20.48 20.48V816.4864a20.48 20.48 0 0 1-20.48 20.48z"  horiz-adv-x="1024" />

    
    <glyph glyph-name="-dingdan-soild" unicode="&#58913;" d="M819.2 801.792h-117.504a79.9744 79.9744 0 0 0-79.616-76.8h-220.16a80.0256 80.0256 0 0 0-79.36 76.8H204.8a118.272 118.272 0 0 1-117.76-117.76V15.360000000000014a118.272 118.272 0 0 1 117.76-117.76h614.4a118.272 118.272 0 0 1 117.76 117.76V683.8272a118.272 118.272 0 0 1-117.76 117.76z m-85.8112-660.48H290.7648a29.4912 29.4912 0 0 0 0 58.9312h442.4704a29.4912 29.4912 0 0 0 0-58.9312z m0 179.712H290.7648a29.4912 29.4912 0 0 0 0 58.9312h442.4704a29.4912 29.4912 0 0 0 0-58.9312z m0 179.712H290.7648a29.4912 29.4912 0 0 0 0 58.9824h442.4704a29.4912 29.4912 0 0 0 0-58.9824z m0 0M370.176 870.4512m36.4032 0l210.8928 0q36.4032 0 36.4032-36.4032l0-35.1744q0-36.4032-36.4032-36.4032l-210.8928 0q-36.4032 0-36.4032 36.4032l0 35.1744q0 36.4032 36.4032 36.4032Z"  horiz-adv-x="1024" />

    
    <glyph glyph-name="-uncheck-square" unicode="&#58914;" d="M944.2304-110.28480000000002H79.7696a62.1568 62.1568 0 0 0-62.0544 62.0544V816.2304A62.1568 62.1568 0 0 0 79.7696 878.2848h864.4608a62.1568 62.1568 0 0 0 62.0544-62.0544v-864.4608a62.1568 62.1568 0 0 0-62.0544-62.0544z m-864.4608 947.2a20.48 20.48 0 0 1-20.48-20.48v-864.6656a20.48 20.48 0 0 1 20.48-20.48h864.4608a20.48 20.48 0 0 1 20.48 20.48V816.2304a20.48 20.48 0 0 1-20.48 20.48z"  horiz-adv-x="1024" />

    
    <glyph glyph-name="-alert-soild" unicode="&#58915;" d="M512-102.39999999999998a486.4 486.4 0 1 0 486.4 486.4 486.4 486.4 0 0 0-486.4-486.4zM452.1472 416.4096v-239.4624a54.8864 54.8864 0 0 1 109.7216 0V416.4096a54.8864 54.8864 0 1 1-109.7216 0zM506.88 645.888a50.432 50.432 0 0 1-38.0928-15.36 49.7664 49.7664 0 0 1-16.384-39.168 52.1216 52.1216 0 0 1 16.384-39.168A51.2 51.2 0 0 1 506.88 536.1664000000001a58.0608 58.0608 0 0 1 39.5264 15.36 54.4768 54.4768 0 0 1 15.6672 39.8848 51.5072 51.5072 0 0 1-15.6672 39.168 52.7872 52.7872 0 0 1-39.5264 15.36z m0 0"  horiz-adv-x="1024" />

    
    <glyph glyph-name="-check-circle" unicode="&#58916;" d="M886.272 591.7696000000001L474.6752 180.22400000000005a32 32 0 0 0-45.3632 0l-179.9168 179.9168a32.1024 32.1024 0 0 0 45.3632 45.4144l157.2864-157.2864 388.8128 389.12a32.1024 32.1024 0 0 0 45.4144-45.4144zM969.4208 384a457.2672 457.2672 0 1 0-205.6192 381.952 24.576 24.576 0 1 0-27.0848-40.96 408.2688 408.2688 0 1 1 183.552-340.992 416.512 416.512 0 0 1-2.1504 42.496 24.576 24.576 0 0 0 48.896 5.12 472.6272 472.6272 0 0 0 2.4064-47.616z"  horiz-adv-x="1024" />

    
    <glyph glyph-name="-gift2" unicode="&#58917;" d="M474.2656 649.8304v-215.7056H31.6928V607.2832000000001a48.5888 48.5888 0 0 0 48.5376 49.0496h201.6768C227.7888 667.8016 187.136 691.2 185.6512 734.4639999999999c-1.536 51.2 55.3472 133.12 138.24 114.5344C409.6 829.44 469.6576 762.4192 515.5328 704.9728c46.08 58.6752 111.872 134.144 201.4208 146.0224 74.752 9.5232 136.5504-65.9456 128.6144-115.712-6.8096-43.6224-48.1792-67.4304-100.9664-78.8992h199.168a48.64 48.64 0 0 0 48.5376-49.0496v-173.1072h-442.5728l-0.9728 218.0096M333.2096 803.84c-41.4208 16.5376-65.6896-1.1776-83.0976-30.3104C240.64 757.1456000000001 230.4 735.232 245.76 719.2064c39.8336-41.4208 148.992-38.3488 222.2592-30.72-34.5088 43.6224-76.8 92.16-134.6048 115.3024z m452.4032-84.3776c28.416 36.8128-27.2896 113.4592-87.04 85.1456-57.2928-27.2384-98.6112-71.68-134.2464-115.3536a681.4208 681.4208 0 0 1 92.5696-1.9456c37.5296 1.5872 106.9568 4.2496 128.8704 32.1536zM477.2864-83.81439999999998H116.5824a44.288 44.288 0 0 0-44.032 44.7488V399.36h404.7872v-483.0208z m474.112 44.8a44.288 44.288 0 0 0-44.032-44.7488h-360.6528V399.36h404.48z m0 0"  horiz-adv-x="1024" />

    
    <glyph glyph-name="-close-circle" unicode="&#58918;" d="M995.7888 434.5856a30.72 30.72 0 0 1-11.1104 20.48A30.72 30.72 0 0 1 942.08 450.56a30.3616 30.3616 0 0 1-6.656-22.3744 434.688 434.688 0 0 0 2.2528-44.288 425.2672 425.2672 0 1 0-191.232 355.2256 30.72 30.72 0 0 1 33.5872 50.8928A486.4 486.4 0 1 1 998.4 384a494.4896 494.4896 0 0 1-2.6112 50.5856zM291.84 142.4384a31.232 31.232 0 0 1 44.1856 0l197.3248 197.4272 197.4272-197.3248a31.1808 31.1808 0 1 1 44.0832 44.0832L577.5872 384l197.3248 197.3248a31.232 31.232 0 1 1-44.1856 44.1856l-197.3248-197.376-197.3248 197.4272a31.232 31.232 0 0 1-44.1856 0 31.2832 31.2832 0 0 1 0-44.1856L489.3184 384 291.84 186.62400000000002a31.2832 31.2832 0 0 1 0-44.1856z"  horiz-adv-x="1024" />

    
    <glyph glyph-name="-home-soild" unicode="&#58919;" d="M870.4 781.9775999999999H153.6a32 32 0 0 0-30.72 33.2288 32 32 0 0 0 30.72 33.1776h716.8a32 32 0 0 0 30.72-33.1776 32 32 0 0 0-30.72-33.2288z m0-424.96c55.3984-3.328 109.1072 36.352 124.0576 94.2592 3.6864 14.1312 6.0928 28.5184 0.6656 43.1104-26.2656 70.8608-52.5312 141.6704-78.2336 212.7872-3.2256 8.9088-7.2704 11.0592-15.36 11.0592q-391.0656-0.3072-782.1312 0a13.2096 13.2096 0 0 1-14.6432-10.8032c-25.2928-71.68-51.2-143.36-76.1856-215.04A50.0736 50.0736 0 0 1 26.368 471.04a128.7168 128.7168 0 0 1 48.5888-89.088c68.1472-55.04 168.96-16.4352 189.9008 72.9088a3.6864 3.6864 0 0 0 7.2192 0C291.84 379.39200000000005 358.4 349.0816 411.6992 358.75840000000005c46.6432 8.448 85.0432 48.0768 96.256 97.28a3.6352 3.6352 0 0 0 7.2192 0c13.8752-56.7296 55.1936-89.6512 97.28-97.28a110.848 110.848 0 0 1 81.5104 15.36 128.4608 128.4608 0 0 1 56.32 78.2336 3.6864 3.6864 0 0 0 7.168 0c18.6368-64.3584 70.2976-93.0816 112.64-95.5904zM110.2336 261.47839999999997c0-2.6112-0.256-5.12-0.256-7.5264 0-88.8832 0.9728-177.8176-0.512-266.7008-0.5632-35.5328 30.464-67.7888 63.1296-67.6352 226.5088 1.0752 453.0176 0.5632 679.5776 0.5632 37.0688 0 62.1568 27.3408 62.1568 67.7888V261.12a3.9424 3.9424 0 0 1-4.4032 4.0448c-67.0208-11.6224-118.1696 11.3664-151.808 74.7008a3.6352 3.6352 0 0 1-6.5536 0c-25.2416-49.408-63.8976-77.5168-117.2992-77.824s-92.6208 27.9552-118.6816 77.9776a3.6352 3.6352 0 0 1-6.5536 0c-25.9072-50.7392-65.3312-77.824-118.4256-77.824s-92.928 27.0848-117.76 77.7216a3.6352 3.6352 0 0 1-6.5536 0c-34.0992-63.1296-84.8384-86.1184-151.5008-74.9056a3.84 3.84 0 0 1-4.352-3.7888z m0 0"  horiz-adv-x="1024" />

    
    <glyph glyph-name="-ibarrel-soild" unicode="&#58920;" d="M751.2064 807.5776c45.7216-58.4192 63.5904-125.4912 41.7792-184.9344C752.3328 512 589.9264 469.5552 430.08 528.1279999999999c-111.2576 40.96-191.8976 119.8592-216.7808 201.472C248.4736 664.3199999999999 318.6688 604.8256 409.6 571.392c157.0816-57.6 316.8256-15.9744 356.8128 92.9792 16.7936 45.7728 9.5744 96.1536-15.872 143.36a481.28 481.28 0 1 1 0.4608-0.256zM243.5584 15.360000000000014c-102.4 37.4784-169.728 121.4464-170.752 196.608 33.7408-62.5152 100.608-119.296 187.392-151.0912 85.7088-31.4368 172.2368-31.7952 238.0288-6.912-49.92-55.6032-153.344-75.8784-254.6688-38.6048z m510.9248 379.904c-55.2448-150.6816-246.9376-218.9312-428.288-152.5248-143.36 52.5824-237.1584 173.7216-242.8928 296.6016 29.952-97.792 113.7152-186.2656 230.7072-229.1712 180.8896-66.56 372.2752 1.792 427.3664 152.1664a245.4016 245.4016 0 0 1 14.336 101.6832 255.0784 255.0784 0 0 0-1.2288-168.9088z"  horiz-adv-x="1024" />

    
    <glyph glyph-name="-chevron-left" unicode="&#58921;" d="M730.9312-119.65440000000001a31.6928 31.6928 0 0 1 26.7264 48.64l-0.4096 0.6656L332.0832 384l424.96 454.3488 0.4608 0.6656a31.6928 31.6928 0 0 1-53.1456 34.56L266.7008 401.5616l-0.4096-0.6144a31.8976 31.8976 0 0 1 0-33.8944l0.4096-0.6144 437.8624-472.0128a31.6416 31.6416 0 0 1 26.368-14.08z m0 0"  horiz-adv-x="1024" />

    
    <glyph glyph-name="-help" unicode="&#58922;" d="M459.8784 88.32000000000005A52.1216 52.1216 0 1 1 512 140.4416a52.1216 52.1216 0 0 1-52.1216-52.1216zM512 870.4a486.4 486.4 0 1 1 486.4-486.4 486.912 486.912 0 0 1-486.4 486.4z m0-903.0144A416.6144 416.6144 0 1 0 928.6144 384 417.1264 417.1264 0 0 0 512-32.614400000000046zM512 208.4352a34.7648 34.7648 0 0 0-34.7648 34.7648V302.08000000000004c0 56.832 43.4688 100.3008 81.92 138.5984 28.1088 28.16 57.1904 57.1904 57.1904 80.384A104.7552 104.7552 0 0 1 512 625.9200000000001a102.4 102.4 0 0 1-104.2432-102.4 34.7648 34.7648 0 1 0-69.4784 0 173.7216 173.7216 0 0 0 347.4432-2.3552c0-52.0192-39.424-91.4432-77.568-129.536-30.208-30.1568-61.44-61.44-61.44-89.3952v-58.7264a34.816 34.816 0 0 0-34.7648-34.816z"  horiz-adv-x="1024" />

    


  </font>
</defs>
</svg>
